<?xml version="1.0" encoding="utf-8"?>
<!-- Generator: Adobe Illustrator 22.0.1, SVG Export Plug-In . SVG Version: 6.00 Build 0)  -->
<svg version="1.1" id="Layer_1" xmlns="http://www.w3.org/2000/svg" xmlns:xlink="http://www.w3.org/1999/xlink" x="0px" y="0px"
	 viewBox="0 0 200 200" style="enable-background:new 0 0 200 200;" xml:space="preserve">
<style type="text/css">
	.st0{fill:#00FFFF;}
</style>
<g>
	<polygon class="st0" points="100.1,144.7 45.5,184.3 66.3,120.2 11.8,80.5 79.2,80.5 100.1,16.3 120.9,80.5 188.4,80.5 
		133.8,120.2 154.7,184.3 	"/>
	<path d="M100.1,21.2l19.1,58.7l0.7,2.1h2.2h61.8l-50,36.3l-1.8,1.3l0.7,2.1l19.1,58.7l-50-36.3l-1.8-1.3l-1.8,1.3l-50,36.3
		l19.1-58.7l0.7-2.1l-1.8-1.3L16.4,82h61.8h2.2l0.7-2.1L100.1,21.2 M100.1,11.5L78.1,79h-71l57.4,41.7l-21.9,67.5l57.4-41.7
		l57.4,41.7l-21.9-67.5L193,79h-71L100.1,11.5L100.1,11.5z"/>
</g>
</svg>
